<svg xmlns="http://www.w3.org/2000/svg" xmlns:xlink="http://www.w3.org/1999/xlink" width="2000" zoomAndPan="magnify" viewBox="0 0 1500 1499.999933" height="2000" preserveAspectRatio="xMidYMid meet" version="1.0"><defs><g/><clipPath id="c4b0a0e009"><path d="M 236.378906 173.363281 L 1350 173.363281 L 1350 1286.984375 L 236.378906 1286.984375 Z M 236.378906 173.363281 " clip-rule="nonzero"/></clipPath><clipPath id="0ebe370730"><path d="M 410.382812 173.363281 L 1175.996094 173.363281 C 1272.097656 173.363281 1350 251.269531 1350 347.367188 L 1350 1112.980469 C 1350 1209.082031 1272.097656 1286.984375 1175.996094 1286.984375 L 410.382812 1286.984375 C 314.28125 1286.984375 236.378906 1209.082031 236.378906 1112.980469 L 236.378906 347.367188 C 236.378906 251.269531 314.28125 173.363281 410.382812 173.363281 Z M 410.382812 173.363281 " clip-rule="nonzero"/></clipPath><clipPath id="f13e0f380d"><path d="M 0.378906 0.363281 L 1114 0.363281 L 1114 1113.984375 L 0.378906 1113.984375 Z M 0.378906 0.363281 " clip-rule="nonzero"/></clipPath><clipPath id="83c04368a0"><path d="M 174.382812 0.363281 L 939.996094 0.363281 C 1036.097656 0.363281 1114 78.269531 1114 174.367188 L 1114 939.980469 C 1114 1036.082031 1036.097656 1113.984375 939.996094 1113.984375 L 174.382812 1113.984375 C 78.28125 1113.984375 0.378906 1036.082031 0.378906 939.980469 L 0.378906 174.367188 C 0.378906 78.269531 78.28125 0.363281 174.382812 0.363281 Z M 174.382812 0.363281 " clip-rule="nonzero"/></clipPath><clipPath id="6912fcc3cd"><rect x="0" width="1114" y="0" height="1114"/></clipPath><clipPath id="c1574f4e84"><path d="M 404 295.910156 L 1183 295.910156 L 1183 1164.410156 L 404 1164.410156 Z M 404 295.910156 " clip-rule="nonzero"/></clipPath></defs><rect x="-150" width="1800" fill="#ffffff" y="-149.999993" height="1799.99992" fill-opacity="1"/><rect x="-150" width="1800" fill="#ffffff" y="-149.999993" height="1799.99992" fill-opacity="1"/><g clip-path="url(#c4b0a0e009)"><g clip-path="url(#0ebe370730)"><g transform="matrix(1, 0, 0, 1, 236, 173)"><g clip-path="url(#6912fcc3cd)"><g clip-path="url(#f13e0f380d)"><g clip-path="url(#83c04368a0)"><path fill="#8e53ff" d="M 0.378906 0.363281 L 1114 0.363281 L 1114 1113.984375 L 0.378906 1113.984375 Z M 0.378906 0.363281 " fill-opacity="1" fill-rule="nonzero"/></g></g></g></g></g></g><g fill="#ffffff" fill-opacity="1"><g transform="translate(624.400636, 893.894423)"><g><path d="M 50.390625 -117.234375 L 50.390625 -79.1875 L 117.03125 -79.1875 L 117.03125 -52.453125 L 50.390625 -52.453125 L 50.390625 0 L 17.078125 0 L 17.078125 -143.984375 L 125.875 -143.984375 L 125.875 -117.234375 Z M 50.390625 -117.234375 "/></g></g></g><g fill="#ffffff" fill-opacity="1"><g transform="translate(761.594134, 893.894423)"><g><path d="M 149.125 -143.984375 L 149.125 0 L 115.796875 0 L 115.796875 -59.03125 L 50.390625 -59.03125 L 50.390625 0 L 17.078125 0 L 17.078125 -143.984375 L 50.390625 -143.984375 L 50.390625 -87.21875 L 115.796875 -87.21875 L 115.796875 -143.984375 Z M 149.125 -143.984375 "/></g></g></g><g clip-path="url(#c1574f4e84)"><path fill="#ffffff" d="M 1067.726562 592.597656 L 1067.726562 470.480469 L 735.953125 295.910156 L 404.089844 470.480469 L 404.089844 1039.277344 L 422.589844 1039.277344 L 422.589844 481.597656 L 735.953125 316.667969 L 1049.140625 481.597656 L 1049.140625 582.871094 L 850.597656 478.210938 L 518.648438 652.960938 L 518.648438 1039.277344 L 1067.640625 1039.277344 L 1067.640625 613.527344 L 1163.699219 664.074219 L 1163.699219 1145.933594 L 518.648438 1145.933594 L 518.648438 1164.433594 L 1182.285156 1164.433594 L 1182.285156 652.960938 Z M 1049.230469 1020.777344 L 537.148438 1020.777344 L 537.148438 664.074219 L 850.597656 499.144531 L 1049.230469 603.714844 Z M 1049.230469 1020.777344 " fill-opacity="1" fill-rule="nonzero"/></g></svg>